<?xml version="1.0" standalone="no"?>
<!DOCTYPE svg PUBLIC "-//W3C//DTD SVG 20010904//EN"
 "http://www.w3.org/TR/2001/REC-SVG-20010904/DTD/svg10.dtd">
<svg version="1.0" xmlns="http://www.w3.org/2000/svg"
 width="834.000000pt" height="205.000000pt" viewBox="0 0 834.000000 205.000000"
 preserveAspectRatio="xMidYMid meet">

<g transform="translate(0.000000,205.000000) scale(0.100000,-0.100000)"
fill="#000000" stroke="none">
<path d="M1367 1749 c-16 -4 -34 -13 -42 -19 -7 -6 -24 -8 -38 -5 -51 13 -176
-69 -238 -156 l-19 -27 115 -81 c63 -45 119 -81 124 -81 12 0 54 76 80 145 23
62 27 116 10 147 -9 18 -8 24 7 35 26 19 42 16 70 -12 l24 -24 -2 -658 -3
-658 -52 -6 c-95 -12 -100 -15 -105 -56 -7 -52 -2 -61 40 -73 50 -14 239 -12
282 3 32 11 35 16 38 54 4 48 -9 59 -79 67 l-44 5 38 -11 c20 -7 36 -16 34
-22 -9 -29 -255 -28 -264 0 -5 17 95 30 110 15 37 -37 37 -32 37 669 0 591 -2
685 -15 710 -9 17 -17 30 -18 30 -1 0 -16 4 -32 8 -17 5 -43 5 -58 1z m-64
-65 c4 -4 -13 -19 -36 -34 -23 -15 -64 -50 -90 -79 -41 -44 -51 -50 -67 -41
-27 14 -25 23 13 66 58 68 154 114 180 88z"/>
<path d="M212 1358 l3 -173 289 -3 c205 -2 293 1 302 9 11 9 14 46 14 159 0
82 -3 155 -6 164 -5 14 -42 16 -305 16 l-299 0 2 -172z m272 132 c-5 -5 -45
-17 -89 -26 -44 -9 -85 -20 -91 -25 -6 -5 -16 -35 -23 -66 -22 -99 -30 -95
-31 14 0 72 4 103 13 106 24 10 231 7 221 -3z"/>
<path d="M2585 1285 c-22 -8 -41 -15 -42 -15 -1 0 -10 -14 -19 -31 -13 -26
-15 -69 -15 -255 0 -244 5 -267 57 -294 41 -22 162 -20 198 3 50 33 56 66 55
289 0 228 -7 262 -56 291 -44 25 -128 31 -178 12z m155 -60 c19 -17 20 -31 20
-241 l0 -223 -26 -20 c-36 -29 -112 -29 -148 0 l-26 20 0 215 c0 224 4 248 43
264 33 15 114 5 137 -15z"/>
<path d="M3923 1289 c-17 -5 -43 -23 -57 -40 l-26 -31 0 -230 c0 -198 2 -234
17 -259 32 -54 133 -75 213 -43 48 19 70 55 70 114 0 36 -2 40 -25 40 -22 0
-25 -4 -25 -35 0 -55 -36 -85 -100 -85 -41 0 -56 5 -76 25 -23 24 -25 30 -22
122 l3 98 123 3 122 3 0 124 c0 118 -1 125 -26 154 -38 46 -115 62 -191 40z
m127 -54 c34 -18 43 -50 38 -145 l-3 -65 -97 -3 -98 -3 1 83 c0 46 4 91 8 102
17 42 97 59 151 31z"/>
<path d="M4393 1289 c-62 -18 -96 -96 -74 -168 8 -28 44 -71 131 -157 111
-111 120 -123 120 -157 0 -56 -35 -87 -98 -87 -75 0 -102 26 -102 96 0 54 0
54 -31 54 l-32 0 6 -66 c4 -50 10 -71 28 -90 61 -65 228 -54 264 17 17 33 20
111 4 142 -6 12 -62 72 -125 132 -113 110 -114 111 -114 157 0 39 5 50 28 68
22 18 36 21 76 17 64 -6 86 -31 86 -98 0 -46 2 -49 25 -49 24 0 25 2 25 64 0
49 -5 69 -20 89 -33 42 -121 58 -197 36z"/>
<path d="M6024 1290 c-16 -5 -41 -21 -55 -36 -24 -25 -24 -27 -27 -257 -2
-251 0 -263 51 -301 23 -17 43 -21 102 -21 59 0 79 4 102 21 50 37 53 52 53
289 0 234 -3 252 -50 287 -29 21 -131 32 -176 18z m135 -55 c16 -8 31 -25 35
-37 3 -13 6 -114 6 -225 0 -189 -1 -204 -20 -223 -25 -25 -61 -34 -113 -27
-74 10 -77 19 -76 256 0 113 4 214 8 225 17 43 105 60 160 31z"/>
<path d="M6516 1287 c-21 -7 -48 -25 -60 -40 -20 -27 -21 -43 -24 -247 -3
-238 3 -273 51 -305 40 -26 129 -31 182 -10 72 27 75 38 75 304 l0 229 -26 31
c-40 48 -117 62 -198 38z m133 -52 c16 -8 31 -22 35 -30 3 -9 6 -111 6 -226 0
-210 0 -210 -25 -234 -43 -44 -150 -30 -174 22 -7 15 -11 99 -11 224 l0 201
29 29 c34 33 92 39 140 14z"/>
<path d="M7435 1286 c-46 -18 -74 -50 -75 -88 -1 -31 -1 -317 0 -402 0 -47 4
-59 30 -84 53 -54 174 -55 232 -3 25 22 32 37 36 79 4 51 4 52 -22 52 -19 0
-26 -5 -26 -19 0 -36 -22 -78 -46 -90 -40 -18 -98 -13 -128 10 -25 20 -26 24
-26 125 l0 104 125 0 125 0 0 110 c0 124 -12 166 -55 194 -37 24 -120 30 -170
12z m141 -59 c26 -23 27 -29 28 -113 l1 -89 -97 -3 -98 -3 0 86 c0 48 5 95 11
106 23 44 112 53 155 16z"/>
<path d="M7959 1286 c-14 -8 -30 -26 -37 -40 -16 -35 -28 -33 -42 9 -6 19 -16
35 -21 35 -5 0 -9 -126 -9 -306 l0 -305 28 3 27 3 5 252 5 252 29 30 c50 52
107 34 112 -35 1 -21 2 -45 3 -51 1 -7 12 -13 26 -13 23 0 25 4 25 40 0 46
-19 99 -43 118 -24 20 -79 24 -108 8z"/>
<path d="M2000 985 l0 -305 25 0 c25 0 25 1 26 88 1 48 2 112 3 142 l1 55 100
0 100 0 3 -142 3 -143 24 0 25 0 0 305 0 305 -25 0 -24 0 -3 -132 -3 -133
-100 0 -100 0 -2 70 c0 39 -2 98 -2 133 -1 59 -2 62 -26 62 l-25 0 0 -305z"/>
<path d="M2994 1276 c-3 -8 -4 -131 -2 -273 2 -186 7 -264 16 -280 33 -58 131
-68 181 -19 23 23 26 36 29 106 4 80 4 80 -21 80 -24 0 -25 -3 -29 -71 -3 -55
-8 -74 -23 -85 -26 -19 -59 -17 -78 4 -15 16 -17 49 -17 260 l0 242 70 0 c68
0 70 1 70 25 0 25 0 25 -95 25 -73 0 -97 -3 -101 -14z"/>
<path d="M3370 986 l0 -306 90 0 c112 0 162 18 184 65 21 43 23 435 3 474 -26
52 -60 65 -172 69 l-105 4 0 -306z m194 243 c42 -20 47 -51 44 -263 -3 -194
-3 -198 -27 -217 -18 -15 -39 -19 -92 -19 l-69 0 0 248 c0 137 3 252 7 255 11
11 110 8 137 -4z"/>
<path d="M4810 985 l0 -305 25 0 25 0 0 110 c0 113 16 176 43 168 7 -2 44 -66
82 -141 64 -126 72 -137 98 -137 15 0 27 3 27 6 0 3 -39 81 -87 173 l-87 167
75 120 c42 65 79 125 83 132 5 8 -1 12 -22 12 -25 0 -36 -13 -111 -130 -45
-72 -87 -128 -92 -125 -5 4 -9 62 -9 131 l0 124 -25 0 -25 0 0 -305z"/>
<path d="M5470 984 l0 -306 108 4 c159 6 182 27 182 174 0 77 -2 87 -25 109
-13 14 -29 25 -36 25 -6 0 3 16 20 35 29 33 31 41 31 110 0 64 -3 77 -26 104
-31 38 -77 51 -176 51 l-78 0 0 -306z m189 241 c35 -18 41 -32 41 -101 0 -45
-4 -59 -25 -80 -22 -22 -32 -25 -88 -22 l-62 3 -3 94 c-1 52 -1 100 2 108 7
18 99 17 135 -2z m4 -256 c34 -16 47 -49 47 -125 0 -56 -3 -68 -25 -90 -22
-22 -32 -25 -93 -22 l-67 3 -3 109 c-1 61 0 116 2 123 7 16 105 18 139 2z"/>
<path d="M6940 1230 c-1 -33 -1 -132 -1 -220 0 -361 -2 -330 26 -330 l25 0 0
123 c1 118 10 157 36 157 5 0 42 -63 82 -140 64 -121 77 -140 98 -140 13 0 24
2 24 5 0 3 -38 82 -85 175 l-85 170 80 125 c44 69 80 128 80 131 0 3 -12 4
-27 2 -23 -2 -40 -23 -104 -122 -42 -66 -81 -122 -87 -124 -9 -3 -12 32 -12
122 l0 126 -25 0 c-24 0 -25 -3 -25 -60z"/>
<path d="M947 1244 c-12 -12 4 -24 31 -24 25 -1 25 -2 10 -14 -13 -9 -18 -27
-18 -60 l0 -46 -164 0 c-99 0 -167 4 -171 10 -3 6 -28 10 -54 10 -42 0 -50 3
-55 23 l-6 22 -18 -22 c-21 -26 -66 -33 -247 -39 -106 -4 -132 -8 -142 -21
-19 -25 -17 -187 2 -203 13 -11 15 -60 15 -335 l0 -323 22 -5 c12 -3 25 -4 30
-1 4 3 8 136 8 295 0 181 4 298 10 310 10 18 24 19 303 19 215 0 296 -3 305
-12 9 -9 12 -92 12 -310 l0 -298 35 0 35 0 0 95 0 95 135 0 135 0 0 -95 0 -95
30 0 30 0 -2 438 -3 437 -72 3 -73 3 0 53 c0 35 5 58 15 66 8 7 12 16 9 21 -6
10 -137 12 -147 3z m-297 -254 l0 -70 -247 2 -248 3 -3 54 c-2 29 -1 60 2 67
4 11 52 14 251 14 l245 0 0 -70z m528 58 c15 -15 16 -82 2 -109 -10 -18 -24
-19 -245 -19 l-235 0 0 70 0 70 233 0 c168 0 236 -3 245 -12z m-18 -258 l0
-50 -135 0 -135 0 0 50 0 50 135 0 135 0 0 -50z m-5 -145 l0 -50 -132 -3 -133
-3 0 56 0 56 133 -3 132 -3 0 -50z m5 -145 l0 -50 -135 0 -135 0 0 50 0 50
135 0 135 0 0 -50z"/>
<path d="M900 990 c0 -5 18 -10 39 -10 22 0 43 5 46 10 4 6 -12 10 -39 10 -25
0 -46 -4 -46 -10z"/>
<path d="M995 790 c3 -5 17 -10 31 -10 13 0 24 5 24 10 0 6 -14 10 -31 10 -17
0 -28 -4 -24 -10z"/>
<path d="M1003 643 c9 -2 25 -2 35 0 9 3 1 5 -18 5 -19 0 -27 -2 -17 -5z"/>
<path d="M1000 500 c0 -5 9 -10 20 -10 11 0 20 5 20 10 0 6 -9 10 -20 10 -11
0 -20 -4 -20 -10z"/>
</g>
</svg>
